<?xml version="1.0" standalone="no"?>
<!DOCTYPE svg PUBLIC "-//W3C//DTD SVG 20010904//EN"
 "http://www.w3.org/TR/2001/REC-SVG-20010904/DTD/svg10.dtd">
<svg version="1.0" xmlns="http://www.w3.org/2000/svg"
 width="864.000000pt" height="864.000000pt" viewBox="0 0 864.000000 864.000000"
 preserveAspectRatio="xMidYMid meet">
<metadata>
Created by potrace 1.14, written by Peter Selinger 2001-2017
</metadata>
<g transform="translate(0.000000,864.000000) scale(0.100000,-0.100000)"
fill="#000000" stroke="none">
<path d="M4310 8149 c0 -5 -4 -8 -9 -4 -5 3 -12 1 -16 -4 -3 -5 -38 -31 -78
-57 -39 -27 -74 -50 -77 -54 -5 -5 -311 -212 -355 -240 -13 -8 -82 -55 -155
-105 -72 -49 -139 -94 -148 -100 -9 -5 -19 -12 -22 -15 -3 -3 -32 -23 -65 -45
-33 -22 -63 -44 -67 -50 -5 -7 -8 -7 -8 0 0 6 -4 4 -9 -4 -5 -7 -24 -23 -44
-35 -35 -21 -232 -153 -252 -169 -42 -33 -216 -147 -225 -147 -5 0 -10 -4 -10
-8 0 -5 -38 -33 -85 -63 -47 -29 -85 -57 -85 -61 0 -5 -4 -8 -9 -8 -8 0 -128
-78 -166 -107 -41 -32 -167 -113 -175 -113 -5 0 -10 -5 -10 -10 0 -6 -11 -15
-25 -20 -14 -5 -25 -15 -25 -21 0 -7 -3 -9 -6 -6 -4 4 -24 -7 -44 -23 -21 -17
-42 -30 -48 -30 -6 0 -12 -4 -14 -8 -3 -9 -136 -101 -168 -117 -11 -5 -20 -13
-20 -17 0 -5 -6 -8 -14 -8 -8 0 -16 -3 -18 -8 -1 -4 -79 -59 -173 -121 -93
-63 -171 -118 -173 -123 -2 -4 -10 -8 -18 -8 -8 0 -14 -3 -14 -8 0 -4 -9 -12
-20 -17 -21 -11 -282 -185 -290 -194 -3 -4 -52 -37 -110 -76 -58 -38 -106 -73
-108 -77 -2 -4 -7 -8 -12 -8 -11 0 -204 -132 -208 -142 -2 -4 -8 -8 -12 -8 -9
0 -137 -86 -333 -222 -54 -37 -102 -68 -107 -68 -6 0 -10 -4 -10 -10 0 -5 -7
-10 -15 -10 -8 0 -15 -4 -15 -10 0 -5 -6 -10 -14 -10 -8 0 -16 -4 -18 -8 -1
-5 -37 -30 -78 -57 -41 -27 -79 -53 -85 -57 -5 -5 -18 -14 -27 -21 -15 -11
-15 -16 -2 -57 8 -25 18 -52 21 -60 3 -8 7 -22 9 -30 2 -8 7 -23 12 -35 6 -11
22 -56 37 -100 14 -44 29 -87 32 -95 3 -8 7 -19 9 -25 1 -5 20 -59 42 -120 22
-60 40 -112 40 -115 0 -3 3 -12 6 -20 11 -28 98 -275 100 -285 2 -5 6 -17 9
-25 3 -8 27 -76 52 -150 58 -169 62 -181 70 -205 45 -122 62 -175 57 -180 -3
-3 -1 -5 5 -5 6 0 13 -12 16 -27 4 -23 113 -344 134 -393 3 -8 7 -19 9 -25 1
-5 32 -95 69 -200 36 -104 86 -251 112 -325 25 -74 50 -146 56 -160 6 -14 11
-27 12 -30 8 -34 50 -148 58 -158 5 -6 7 -12 4 -12 -5 0 21 -82 40 -130 3 -8
7 -19 9 -25 1 -5 28 -82 59 -170 31 -88 65 -187 76 -220 12 -33 25 -69 29 -80
9 -21 34 -96 35 -105 0 -3 3 -9 6 -15 7 -12 28 -76 30 -90 1 -5 5 -18 11 -28
5 -10 11 -26 13 -35 3 -9 18 -55 35 -102 17 -47 33 -94 35 -105 3 -11 9 -29
14 -40 9 -19 16 -39 21 -60 1 -5 11 -31 21 -58 10 -26 15 -47 11 -47 -4 0 -2
-4 3 -8 8 -5 46 -106 51 -132 0 -3 6 -18 12 -33 7 -16 12 -34 12 -41 0 -7 3
-16 7 -19 6 -6 67 -176 77 -217 8 -26 39 -114 49 -138 l10 -22 2670 2 2670 3
10 30 c5 17 19 59 32 95 13 36 47 133 75 215 72 208 133 383 197 565 30 85 56
162 58 170 2 8 4 16 5 18 2 1 3 5 5 10 1 4 4 14 8 22 8 20 68 193 71 205 3 9
8 23 23 63 9 23 9 23 18 57 4 17 10 35 14 40 3 6 6 15 8 20 1 6 20 62 43 125
23 63 43 120 44 125 2 6 6 18 9 28 9 22 19 52 17 52 0 0 14 38 31 85 17 47 32
90 34 95 1 6 5 17 8 25 16 42 48 137 52 151 2 8 10 31 17 50 8 18 15 36 16 39
1 7 11 36 19 58 3 9 7 22 9 27 1 6 21 62 43 125 23 63 43 124 46 134 2 11 16
50 31 88 14 37 27 74 28 81 2 6 6 19 9 27 10 22 148 422 154 445 3 11 10 26
16 32 5 7 7 13 4 13 -4 0 2 20 13 45 11 25 17 45 14 45 -2 0 1 10 8 23 6 12
13 27 14 32 2 13 53 165 64 190 4 11 13 34 18 50 6 17 14 39 18 50 4 11 8 22
9 25 0 3 12 37 25 75 13 39 24 72 25 75 0 3 3 10 6 15 4 6 14 35 24 65 15 50
68 203 82 240 3 8 7 20 9 25 1 6 28 82 59 170 31 88 58 165 59 170 1 6 12 36
24 68 19 51 20 60 8 73 -8 8 -19 14 -25 14 -6 0 -11 4 -11 8 0 5 -12 15 -27
23 -16 8 -30 16 -33 20 -3 3 -117 81 -255 174 -137 92 -278 188 -311 212 -34
23 -66 43 -72 43 -6 0 -12 4 -14 8 -2 7 -158 115 -398 276 -25 17 -46 34 -48
38 -2 4 -8 8 -13 8 -7 0 -95 56 -109 70 -3 3 -13 10 -22 15 -28 17 -253 169
-258 175 -3 3 -81 56 -175 119 -93 63 -171 118 -173 123 -2 4 -8 8 -14 8 -6 0
-26 11 -44 25 -18 14 -37 25 -42 25 -6 0 -12 7 -16 15 -3 8 -12 15 -19 15 -8
0 -22 9 -32 20 -10 11 -22 20 -27 20 -5 0 -33 18 -62 40 -29 22 -58 40 -64 40
-5 0 -12 4 -14 8 -1 5 -66 51 -143 102 -77 52 -141 98 -143 102 -2 4 -8 8 -13
8 -6 0 -33 17 -62 38 -29 20 -60 42 -69 47 -28 17 -223 149 -228 155 -13 13
-102 70 -109 70 -5 0 -11 4 -13 8 -1 4 -37 30 -78 57 -41 28 -76 53 -78 58 -2
4 -8 7 -13 7 -6 0 -19 9 -31 20 -12 11 -28 20 -35 20 -7 0 -13 5 -13 10 0 6
-6 10 -14 10 -8 0 -16 4 -18 8 -1 5 -73 55 -158 112 -85 57 -158 108 -162 114
-4 6 -8 7 -8 3 0 -4 -12 3 -27 17 -15 14 -40 30 -55 37 -15 6 -28 15 -28 20 0
5 -6 9 -14 9 -8 0 -16 3 -18 8 -1 4 -73 54 -158 111 -85 58 -157 107 -160 110
-3 3 -17 12 -32 20 -16 8 -28 18 -28 23 0 4 -6 8 -13 8 -8 0 -22 9 -32 20 -10
11 -24 20 -30 20 -7 0 -18 7 -25 15 -14 17 -30 20 -30 4z"/>
</g>
</svg>
